<svg xmlns="http://www.w3.org/2000/svg" width="240" height="240" viewBox="0 0 240 240"><title>Lincoln City — LIN</title><path d="M36,0 H204 Q240,0 240,36 V132 L120,240 L0,132 V36 Q0,0 36,0 Z" fill="#D50032"></path><g transform="translate(7.000000000000002,7.000000000000002) scale(0.9416666666666667)"><clipPath id="clip-lincoln"><path d="M36,0 H204 Q240,0 240,36 V132 L120,240 L0,132 V36 Q0,0 36,0 Z"></path></clipPath><g clip-path="url(#clip-lincoln)"><rect x="0" y="0" width="30" height="240" fill="#D50032"></rect><rect x="30" y="0" width="30" height="240" fill="#FFFFFF"></rect><rect x="60" y="0" width="30" height="240" fill="#D50032"></rect><rect x="90" y="0" width="30" height="240" fill="#FFFFFF"></rect><rect x="120" y="0" width="30" height="240" fill="#D50032"></rect><rect x="150" y="0" width="30" height="240" fill="#FFFFFF"></rect><rect x="180" y="0" width="30" height="240" fill="#D50032"></rect><rect x="210" y="0" width="30" height="240" fill="#FFFFFF"></rect></g></g><circle cx="120" cy="105.6" r="67.2" fill="#FFFFFF" stroke="#D50032" stroke-width="4.8"></circle><text x="120" y="105.6" font-family="&#39;Archivo Black&#39;,&#39;Arial Black&#39;,sans-serif" font-weight="900" text-anchor="middle" dominant-baseline="central" font-size="45.6" fill="#D50032">LIN</text></svg>